<svg width="35" height="35" viewBox="0 0 35 35" fill="none" xmlns="http://www.w3.org/2000/svg">
<path d="M8.74996 20.4166H20.4166V17.5H8.74996V20.4166ZM8.74996 16.0416H26.25V13.125H8.74996V16.0416ZM8.74996 11.6666H26.25V8.74996H8.74996V11.6666ZM2.91663 32.0833V5.83329C2.91663 5.03121 3.20222 4.34458 3.7734 3.7734C4.34458 3.20222 5.03121 2.91663 5.83329 2.91663H29.1666C29.9687 2.91663 30.6553 3.20222 31.2265 3.7734C31.7977 4.34458 32.0833 5.03121 32.0833 5.83329V23.3333C32.0833 24.1354 31.7977 24.822 31.2265 25.3932C30.6553 25.9644 29.9687 26.25 29.1666 26.25H8.74996L2.91663 32.0833ZM7.51038 23.3333H29.1666V5.83329H5.83329V24.9739L7.51038 23.3333Z" fill="#EDEDED"/>
</svg>
