<svg width="22" height="23" viewBox="0 0 22 23" fill="none" xmlns="http://www.w3.org/2000/svg">
<path d="M2.75 13.3158C2.75 14.3649 2.99063 15.3586 3.47188 16.2967C3.95313 17.2349 4.64063 18.057 5.53438 18.7632C5.51146 18.6623 5.5 18.5715 5.5 18.4908V18.2184C5.5 17.5728 5.6375 16.9675 5.9125 16.4026C6.1875 15.8377 6.58854 15.3232 7.11563 14.8592L11 11.5L14.8844 14.8592C15.4115 15.3232 15.8125 15.8377 16.0875 16.4026C16.3625 16.9675 16.5 17.5728 16.5 18.2184V18.4908C16.5 18.5715 16.4885 18.6623 16.4656 18.7632C17.3594 18.057 18.0469 17.2349 18.5281 16.2967C19.0094 15.3586 19.25 14.3649 19.25 13.3158C19.25 12.307 19.038 11.3537 18.6141 10.4559C18.1901 9.55811 17.5771 8.75614 16.775 8.05C16.3167 8.31228 15.8354 8.50899 15.3313 8.64013C14.8271 8.77127 14.3115 8.83684 13.7844 8.83684C12.3635 8.83684 11.1318 8.42325 10.0891 7.59605C9.04635 6.76886 8.44479 5.75 8.28438 4.53947C7.39063 5.20526 6.6 5.89627 5.9125 6.6125C5.225 7.32873 4.64635 8.05504 4.17656 8.79145C3.70677 9.52785 3.35156 10.2794 3.11094 11.0461C2.87031 11.8127 2.75 12.5693 2.75 13.3158ZM11 14.8895L9.04063 16.5842C8.78854 16.8061 8.59375 17.0583 8.45625 17.3408C8.31875 17.6232 8.25 17.9158 8.25 18.2184C8.25 18.864 8.51927 19.4189 9.05781 19.8829C9.59635 20.3469 10.2438 20.5789 11 20.5789C11.7563 20.5789 12.4036 20.3469 12.9422 19.8829C13.4807 19.4189 13.75 18.864 13.75 18.2184C13.75 17.8956 13.6813 17.598 13.5438 17.3257C13.4063 17.0533 13.2115 16.8061 12.9594 16.5842L11 14.8895ZM11 0V3.99474C11 4.6807 11.2693 5.2557 11.8078 5.71974C12.3464 6.18377 13.0052 6.41579 13.7844 6.41579C14.1969 6.41579 14.5807 6.34013 14.9359 6.18882C15.2911 6.0375 15.6063 5.81053 15.8813 5.50789L16.5 4.84211C18.1958 5.68947 19.5365 6.86974 20.5219 8.38289C21.5073 9.89605 22 11.5404 22 13.3158C22 16.0193 20.9344 18.3092 18.8031 20.1855C16.6719 22.0618 14.0708 23 11 23C7.92917 23 5.32813 22.0618 3.19688 20.1855C1.06563 18.3092 0 16.0193 0 13.3158C0 10.7132 0.991146 8.24167 2.97344 5.90132C4.95573 3.56096 7.63125 1.59386 11 0Z" fill="#EC6C04"/>
</svg>
