<svg width="16" height="16" viewBox="0 0 10 10" fill="none" xmlns="http://www.w3.org/2000/svg">
<path d="M6.66667 8.33333H2.08333V2.91667L5 0L5.52083 0.520833C5.56944 0.569444 5.60938 0.635417 5.64062 0.71875C5.67188 0.802083 5.6875 0.881944 5.6875 0.958333V1.10417L5.22917 2.91667H7.91667C8.13889 2.91667 8.33333 3 8.5 3.16667C8.66667 3.33333 8.75 3.52778 8.75 3.75V4.58333C8.75 4.63194 8.74306 4.68403 8.72917 4.73958C8.71528 4.79514 8.70139 4.84722 8.6875 4.89583L7.4375 7.83333C7.375 7.97222 7.27083 8.09028 7.125 8.1875C6.97917 8.28472 6.82639 8.33333 6.66667 8.33333ZM2.91667 7.5H6.66667L7.91667 4.58333V3.75H4.16667L4.72917 1.45833L2.91667 3.27083V7.5ZM2.08333 2.91667V3.75H0.833333V7.5H2.08333V8.33333H0V2.91667H2.08333Z" fill="#EDEDED"/>
</svg>
