<svg width="16" height="18" viewBox="0 0 16 18" fill="none" xmlns="http://www.w3.org/2000/svg">
<path d="M8.50242 7.2L7.42029 5.94L8.63768 4.5H5.41063V2.7H8.63768L7.40097 1.26L8.50242 0L11.5942 3.6L8.50242 7.2ZM4.63768 18C4.21256 18 3.84863 17.8238 3.54589 17.4713C3.24316 17.1188 3.09179 16.695 3.09179 16.2C3.09179 15.705 3.24316 15.2813 3.54589 14.9288C3.84863 14.5763 4.21256 14.4 4.63768 14.4C5.0628 14.4 5.42673 14.5763 5.72947 14.9288C6.03221 15.2813 6.18357 15.705 6.18357 16.2C6.18357 16.695 6.03221 17.1188 5.72947 17.4713C5.42673 17.8238 5.0628 18 4.63768 18ZM12.3671 18C11.942 18 11.5781 17.8238 11.2754 17.4713C10.9726 17.1188 10.8213 16.695 10.8213 16.2C10.8213 15.705 10.9726 15.2813 11.2754 14.9288C11.5781 14.5763 11.942 14.4 12.3671 14.4C12.7923 14.4 13.1562 14.5763 13.4589 14.9288C13.7617 15.2813 13.913 15.705 13.913 16.2C13.913 16.695 13.7617 17.1188 13.4589 17.4713C13.1562 17.8238 12.7923 18 12.3671 18ZM0 1.8V0H2.5314L5.81642 8.1H11.2271L14.2415 1.8H16L12.599 8.955C12.4573 9.255 12.2673 9.4875 12.029 9.6525C11.7907 9.8175 11.5298 9.9 11.2464 9.9H5.48792L4.63768 11.7H13.913V13.5H4.63768C4.05797 13.5 3.61675 13.2075 3.31401 12.6225C3.01127 12.0375 3.00161 11.445 3.28502 10.845L4.3285 8.64L1.54589 1.8H0Z" fill="#0F5B0D"/>
</svg>
