<svg width="68" height="36" viewBox="0 0 68 36" fill="none" xmlns="http://www.w3.org/2000/svg">
<g filter="url(#filter0_d_511_1359)">
<path d="M45.8615 1.63507C44.7177 0.648225 42.8531 0 40.7379 0L6.26737 0.0193504C2.80465 0.0193504 0 1.73183 0 3.87V23.22C0 25.3582 2.80465 27.0707 6.26737 27.0707L40.7379 27.09C42.8531 27.09 44.7177 26.4418 45.8615 25.4549L59.54 13.545L45.8615 1.63507Z" fill="#EC6C04"/>
</g>
<path d="M30.68 15.5C30.68 17.5933 29.54 18.8 27.26 19.12L26.68 21H23.5L24.08 19.1C23.1733 19.0067 22.4133 18.88 21.8 18.72C21.8267 18.44 21.88 18.0333 21.96 17.5C22.0533 16.9533 22.14 16.5467 22.22 16.28C22.6867 16.3467 23.3867 16.4267 24.32 16.52C25.2667 16.6133 25.98 16.66 26.46 16.66C26.74 16.66 26.9067 16.64 26.96 16.6C27.04 16.5467 27.1 16.46 27.14 16.34C27.1933 16.2067 27.22 16.0933 27.22 16C27.22 15.7333 27.0933 15.5333 26.84 15.4C26.5867 15.2533 26.1533 15.08 25.54 14.88C24.8067 14.6533 24.2 14.42 23.72 14.18C23.24 13.94 22.82 13.5667 22.46 13.06C22.1 12.5533 21.92 11.8867 21.92 11.06C21.92 10.4733 22.0533 9.9 22.32 9.34C22.5867 8.76667 22.86 8.38 23.14 8.18C23.2733 8.08667 23.54 7.99333 23.94 7.9C24.34 7.79333 24.7733 7.70667 25.24 7.64L25.74 6H28.92L28.4 7.66C29.0667 7.74 29.6 7.84667 30 7.98C29.9867 8.24667 29.94 8.61333 29.86 9.08C29.7933 9.54667 29.72 9.97333 29.64 10.36L29.18 10.34C27.4467 10.22 26.34 10.16 25.86 10.16C25.66 10.16 25.5467 10.1667 25.52 10.18C25.4667 10.2067 25.42 10.2667 25.38 10.36C25.34 10.4533 25.32 10.56 25.32 10.68C25.32 10.96 25.46 11.18 25.74 11.34C26.0333 11.5 26.4867 11.6733 27.1 11.86C27.8333 12.1 28.4333 12.3333 28.9 12.56C29.38 12.7867 29.7933 13.14 30.14 13.62C30.5 14.1 30.68 14.7267 30.68 15.5Z" fill="#352D48"/>
<defs>
<filter id="filter0_d_511_1359" x="0" y="0" width="67.54" height="35.09" filterUnits="userSpaceOnUse" color-interpolation-filters="sRGB">
<feFlood flood-opacity="0" result="BackgroundImageFix"/>
<feColorMatrix in="SourceAlpha" type="matrix" values="0 0 0 0 0 0 0 0 0 0 0 0 0 0 0 0 0 0 127 0" result="hardAlpha"/>
<feOffset dx="4" dy="4"/>
<feGaussianBlur stdDeviation="2"/>
<feComposite in2="hardAlpha" operator="out"/>
<feColorMatrix type="matrix" values="0 0 0 0 0 0 0 0 0 0 0 0 0 0 0 0 0 0 0.75 0"/>
<feBlend mode="normal" in2="BackgroundImageFix" result="effect1_dropShadow_511_1359"/>
<feBlend mode="normal" in="SourceGraphic" in2="effect1_dropShadow_511_1359" result="shape"/>
</filter>
</defs>
</svg>

