<svg width="69" height="37" viewBox="0 0 69 37" fill="none" xmlns="http://www.w3.org/2000/svg">
<g filter="url(#filter0_d_511_1618)">
<path d="M46.9861 1.75036C45.8142 0.693928 43.9039 0 41.7368 0L6.42105 0.0207148C2.87342 0.0207148 0 1.85393 0 4.14286V24.8571C0 27.1461 2.87342 28.9793 6.42105 28.9793L41.7368 29C43.9039 29 45.8142 28.3061 46.9861 27.2496L61 14.5L46.9861 1.75036Z" fill="#352D48"/>
</g>
<path d="M17.75 16.3158C17.75 17.3649 17.9906 18.3586 18.4719 19.2967C18.9531 20.2349 19.6406 21.057 20.5344 21.7632C20.5115 21.6623 20.5 21.5715 20.5 21.4908V21.2184C20.5 20.5728 20.6375 19.9675 20.9125 19.4026C21.1875 18.8377 21.5885 18.3232 22.1156 17.8592L26 14.5L29.8844 17.8592C30.4115 18.3232 30.8125 18.8377 31.0875 19.4026C31.3625 19.9675 31.5 20.5728 31.5 21.2184V21.4908C31.5 21.5715 31.4885 21.6623 31.4656 21.7632C32.3594 21.057 33.0469 20.2349 33.5281 19.2967C34.0094 18.3586 34.25 17.3649 34.25 16.3158C34.25 15.307 34.038 14.3537 33.6141 13.4559C33.1901 12.5581 32.5771 11.7561 31.775 11.05C31.3167 11.3123 30.8354 11.509 30.3313 11.6401C29.8271 11.7713 29.3115 11.8368 28.7844 11.8368C27.3635 11.8368 26.1318 11.4232 25.0891 10.5961C24.0464 9.76886 23.4448 8.75 23.2844 7.53947C22.3906 8.20526 21.6 8.89627 20.9125 9.6125C20.225 10.3287 19.6464 11.055 19.1766 11.7914C18.7068 12.5279 18.3516 13.2794 18.1109 14.0461C17.8703 14.8127 17.75 15.5693 17.75 16.3158ZM26 17.8895L24.0406 19.5842C23.7885 19.8061 23.5938 20.0583 23.4563 20.3408C23.3188 20.6232 23.25 20.9158 23.25 21.2184C23.25 21.864 23.5193 22.4189 24.0578 22.8829C24.5964 23.3469 25.2438 23.5789 26 23.5789C26.7563 23.5789 27.4036 23.3469 27.9422 22.8829C28.4807 22.4189 28.75 21.864 28.75 21.2184C28.75 20.8956 28.6813 20.598 28.5438 20.3257C28.4063 20.0533 28.2115 19.8061 27.9594 19.5842L26 17.8895ZM26 3V6.99474C26 7.6807 26.2693 8.2557 26.8078 8.71974C27.3464 9.18377 28.0052 9.41579 28.7844 9.41579C29.1969 9.41579 29.5807 9.34013 29.9359 9.18882C30.2911 9.0375 30.6063 8.81053 30.8813 8.50789L31.5 7.84211C33.1958 8.68947 34.5365 9.86974 35.5219 11.3829C36.5073 12.8961 37 14.5404 37 16.3158C37 19.0193 35.9344 21.3092 33.8031 23.1855C31.6719 25.0618 29.0708 26 26 26C22.9292 26 20.3281 25.0618 18.1969 23.1855C16.0656 21.3092 15 19.0193 15 16.3158C15 13.7132 15.9911 11.2417 17.9734 8.90132C19.9557 6.56096 22.6313 4.59386 26 3Z" fill="#EC6C04"/>
<defs>
<filter id="filter0_d_511_1618" x="0" y="0" width="69" height="37" filterUnits="userSpaceOnUse" color-interpolation-filters="sRGB">
<feFlood flood-opacity="0" result="BackgroundImageFix"/>
<feColorMatrix in="SourceAlpha" type="matrix" values="0 0 0 0 0 0 0 0 0 0 0 0 0 0 0 0 0 0 127 0" result="hardAlpha"/>
<feOffset dx="4" dy="4"/>
<feGaussianBlur stdDeviation="2"/>
<feComposite in2="hardAlpha" operator="out"/>
<feColorMatrix type="matrix" values="0 0 0 0 0 0 0 0 0 0 0 0 0 0 0 0 0 0 0.75 0"/>
<feBlend mode="normal" in2="BackgroundImageFix" result="effect1_dropShadow_511_1618"/>
<feBlend mode="normal" in="SourceGraphic" in2="effect1_dropShadow_511_1618" result="shape"/>
</filter>
</defs>
</svg>




