<svg width="24" height="24" viewBox="0 0 25 25" fill="none" xmlns="http://www.w3.org/2000/svg">
<path d="M12.5 1.46002C6.40854 1.46002 1.45996 6.4086 1.45996 12.5C1.45996 14.458 1.99693 16.2852 2.89246 17.8803L1.47777 22.9306C1.45517 23.0115 1.45415 23.0968 1.47481 23.1781C1.49547 23.2595 1.53709 23.334 1.59552 23.3942C1.65395 23.4544 1.72715 23.4983 1.80782 23.5214C1.88849 23.5445 1.97381 23.5461 2.05527 23.526L7.32121 22.221C8.86858 23.047 10.6244 23.54 12.5 23.54C18.5914 23.54 23.54 18.5914 23.54 12.5C23.54 6.4086 18.5914 1.46002 12.5 1.46002ZM12.5 2.42002C18.0725 2.42002 22.58 6.92745 22.58 12.5C22.58 18.0726 18.0725 22.58 12.5 22.58C10.7134 22.58 9.04018 22.1142 7.58559 21.3003C7.4792 21.2409 7.35419 21.2241 7.2359 21.2535L2.62434 22.3963L3.8609 17.9844C3.87859 17.922 3.88348 17.8568 3.87526 17.7925C3.86704 17.7282 3.84589 17.6662 3.81309 17.6103C2.92909 16.1113 2.41996 14.3673 2.41996 12.5C2.41996 6.92745 6.92738 2.42002 12.5 2.42002ZM8.4884 6.74002C8.1807 6.74002 7.74126 6.8545 7.38027 7.24346C7.16345 7.47709 6.25996 8.35739 6.25996 9.90502C6.25996 11.5186 7.37903 12.9108 7.51434 13.0897H7.51527V13.0906C7.50244 13.0738 7.68702 13.3411 7.9334 13.6616C8.17978 13.9821 8.52431 14.403 8.95715 14.8588C9.82281 15.7702 11.0399 16.8236 12.5506 17.4678C13.2463 17.7641 13.7951 17.9429 14.2109 18.0735C14.9815 18.3154 15.6834 18.2786 16.2106 18.201C16.6052 18.1428 17.0393 17.9534 17.4687 17.6816C17.8982 17.4098 18.319 17.0719 18.5046 16.5585C18.6376 16.1904 18.7052 15.8502 18.7296 15.5703C18.7419 15.4304 18.7434 15.3069 18.7343 15.1925C18.7252 15.0782 18.735 14.9906 18.6284 14.8156C18.4049 14.4487 18.1518 14.4392 17.8878 14.3085C17.7411 14.2358 17.3233 14.0319 16.9043 13.8322C16.4858 13.6328 16.1234 13.4562 15.9003 13.3766C15.7593 13.3259 15.5871 13.2528 15.3387 13.281C15.0903 13.3091 14.845 13.4883 14.7021 13.7C14.5668 13.9007 14.0217 14.544 13.8556 14.7331C13.8534 14.7318 13.8678 14.7384 13.8021 14.706C13.5966 14.6043 13.3453 14.5178 12.9734 14.3216C12.6015 14.1254 12.1362 13.8357 11.6271 13.3869V13.386C10.8694 12.7189 10.3387 11.8814 10.1712 11.6C10.1825 11.5866 10.1699 11.6029 10.1937 11.5794L10.1946 11.5785C10.3658 11.4099 10.5174 11.2086 10.6456 11.061C10.8273 10.8516 10.9075 10.6671 10.9943 10.4947C11.1675 10.1511 11.0711 9.77302 10.9709 9.57408V9.57315C10.9778 9.58691 10.9167 9.4521 10.8509 9.29658C10.7849 9.14063 10.7008 8.93844 10.6109 8.72283C10.4312 8.29162 10.2305 7.80798 10.1112 7.52471V7.52377C9.97064 7.19011 9.78047 6.94974 9.53184 6.83377C9.2832 6.71781 9.06353 6.75077 9.05465 6.75033H9.05371C8.87628 6.74215 8.68158 6.74002 8.4884 6.74002ZM8.4884 7.70002C8.67346 7.70002 8.8559 7.70228 9.00871 7.7094C9.16591 7.71723 9.15613 7.71787 9.1259 7.70377C9.09518 7.68945 9.13686 7.6848 9.22621 7.8969C9.34305 8.17427 9.54468 8.65966 9.72496 9.09221C9.8151 9.30848 9.89946 9.51145 9.96684 9.67065C10.0342 9.82984 10.0707 9.91872 10.1131 10.0035V10.0044L10.114 10.0053C10.1556 10.0873 10.1519 10.0348 10.1375 10.0635C10.0362 10.2645 10.0224 10.3139 9.91996 10.4319C9.76395 10.6116 9.60482 10.8121 9.52059 10.895C9.44689 10.9674 9.31392 11.0802 9.2309 11.301C9.14775 11.5221 9.18656 11.8254 9.31996 12.0519C9.49758 12.3534 10.0829 13.3061 10.9925 14.1069C11.5653 14.6119 12.099 14.9461 12.5253 15.171C12.9516 15.3958 13.2988 15.5272 13.3765 15.5656C13.561 15.657 13.7627 15.7279 13.9971 15.6997C14.2316 15.6716 14.4338 15.5293 14.5625 15.3838L14.5634 15.3828C14.7347 15.1887 15.2436 14.6076 15.4878 14.2494C15.4981 14.253 15.4947 14.2502 15.5759 14.2794V14.2803H15.5768C15.6139 14.2935 16.078 14.5013 16.4918 14.6985C16.9057 14.8956 17.3257 15.1006 17.4621 15.1681C17.6591 15.2656 17.7522 15.3291 17.7762 15.3294C17.7778 15.3716 17.7795 15.4174 17.7734 15.4869C17.7566 15.6797 17.705 15.9465 17.6018 16.2322C17.5513 16.3721 17.288 16.6605 16.9559 16.8706C16.6238 17.0808 16.2196 17.2292 16.07 17.2513C15.6199 17.3176 15.0856 17.3418 14.4987 17.1575C14.0918 17.0298 13.5844 16.8645 12.9275 16.5847C11.5951 16.0165 10.4626 15.0495 9.65371 14.1978C9.24924 13.772 8.92519 13.3756 8.69465 13.0756C8.46454 12.7763 8.36405 12.6205 8.28027 12.5103L8.27934 12.5094C8.13062 12.3127 7.21996 11.046 7.21996 9.90502C7.21996 8.69746 7.78084 8.22391 8.08434 7.8969C8.24367 7.72522 8.41786 7.70002 8.4884 7.70002Z" fill="#97FFEA"/>
</svg>
